<svg width="340" height="356" viewBox="0 0 340 356" fill="none" xmlns="http://www.w3.org/2000/svg">
<rect x="1" width="339" height="356" fill="#5563E7"/>
<path d="M204.5 144C204.5 154.205 196.006 162.5 185.5 162.5C174.994 162.5 166.5 154.205 166.5 144C166.5 133.795 174.994 125.5 185.5 125.5C196.006 125.5 204.5 133.795 204.5 144Z" stroke="#3E35A8"/>
<path d="M211.5 143.5C211.5 157.289 199.878 168.5 185.5 168.5C171.122 168.5 159.5 157.289 159.5 143.5C159.5 129.711 171.122 118.5 185.5 118.5C199.878 118.5 211.5 129.711 211.5 143.5Z" stroke="#3E35A8"/>
<path d="M106 17.5V0.5H0.5V104.5H26.5V79.5H40V56.5H65V35H86V17.5H106Z" fill="#3E35A8"/>
<path d="M234 339V356H339.5V252H313.5V277H300V300H275V321.5H254V339H234Z" fill="#3E35A8"/>
<path d="M305.5 52.5V34H287L305.5 52.5Z" fill="#3E35A8"/>
<path d="M305.5 70.5V52H287L305.5 70.5Z" fill="#3E35A8"/>
<path d="M286.5 52.5V34H268L286.5 52.5Z" fill="#3E35A8"/>
<path d="M267.5 52.5V34H249L267.5 52.5Z" fill="#3E35A8"/>
<path d="M248.5 52.5V34H230L248.5 52.5Z" fill="#3E35A8"/>
<path d="M61.2797 271.675L43.7944 271.859L43.5998 253.36L61.2797 271.675Z" fill="#3E35A8"/>
<path d="M78.2925 271.496L60.8072 271.68L60.6125 253.181L78.2925 271.496Z" fill="#3E35A8"/>
<path d="M61.0798 252.676L43.5945 252.86L43.3998 234.361L61.0798 252.676Z" fill="#3E35A8"/>
<path d="M60.8799 233.677L43.3946 233.861L43.1999 215.362L60.8799 233.677Z" fill="#3E35A8"/>
<path d="M60.68 214.678L43.1947 214.862L43 196.363L60.68 214.678Z" fill="#3E35A8"/>
<circle cx="225.5" cy="182.5" r="1.5" fill="#3E35A8"/>
<circle cx="246.5" cy="182.5" r="1.5" fill="#3E35A8"/>
<circle cx="267.5" cy="182.5" r="1.5" fill="#3E35A8"/>
<circle cx="232.5" cy="182.5" r="1.5" fill="#3E35A8"/>
<circle cx="253.5" cy="182.5" r="1.5" fill="#3E35A8"/>
<circle cx="274.5" cy="182.5" r="1.5" fill="#3E35A8"/>
<circle cx="239.5" cy="182.5" r="1.5" fill="#3E35A8"/>
<circle cx="260.5" cy="182.5" r="1.5" fill="#3E35A8"/>
<circle cx="281.5" cy="182.5" r="1.5" fill="#3E35A8"/>
<circle cx="225.5" cy="189.5" r="1.5" fill="#3E35A8"/>
<circle cx="246.5" cy="189.5" r="1.5" fill="#3E35A8"/>
<circle cx="267.5" cy="189.5" r="1.5" fill="#3E35A8"/>
<circle cx="232.5" cy="189.5" r="1.5" fill="#3E35A8"/>
<circle cx="253.5" cy="189.5" r="1.5" fill="#3E35A8"/>
<circle cx="274.5" cy="189.5" r="1.5" fill="#3E35A8"/>
<circle cx="239.5" cy="189.5" r="1.5" fill="#3E35A8"/>
<circle cx="260.5" cy="189.5" r="1.5" fill="#3E35A8"/>
<circle cx="281.5" cy="189.5" r="1.5" fill="#3E35A8"/>
<circle cx="225.5" cy="196.5" r="1.5" fill="#3E35A8"/>
<circle cx="246.5" cy="196.5" r="1.5" fill="#3E35A8"/>
<circle cx="267.5" cy="196.5" r="1.5" fill="#3E35A8"/>
<circle cx="232.5" cy="196.5" r="1.5" fill="#3E35A8"/>
<circle cx="253.5" cy="196.5" r="1.5" fill="#3E35A8"/>
<circle cx="274.5" cy="196.5" r="1.5" fill="#3E35A8"/>
<circle cx="239.5" cy="196.5" r="1.5" fill="#3E35A8"/>
<circle cx="260.5" cy="196.5" r="1.5" fill="#3E35A8"/>
<circle cx="281.5" cy="196.5" r="1.5" fill="#3E35A8"/>
<circle cx="225.5" cy="203.5" r="1.5" fill="#3E35A8"/>
<circle cx="246.5" cy="203.5" r="1.5" fill="#3E35A8"/>
<circle cx="267.5" cy="203.5" r="1.5" fill="#3E35A8"/>
<circle cx="232.5" cy="203.5" r="1.5" fill="#3E35A8"/>
<circle cx="253.5" cy="203.5" r="1.5" fill="#3E35A8"/>
<circle cx="274.5" cy="203.5" r="1.5" fill="#3E35A8"/>
<circle cx="239.5" cy="203.5" r="1.5" fill="#3E35A8"/>
<circle cx="260.5" cy="203.5" r="1.5" fill="#3E35A8"/>
<circle cx="281.5" cy="203.5" r="1.5" fill="#3E35A8"/>
<circle cx="225.5" cy="210.5" r="1.5" fill="#3E35A8"/>
<circle cx="246.5" cy="210.5" r="1.5" fill="#3E35A8"/>
<circle cx="267.5" cy="210.5" r="1.5" fill="#3E35A8"/>
<circle cx="232.5" cy="210.5" r="1.5" fill="#3E35A8"/>
<circle cx="253.5" cy="210.5" r="1.5" fill="#3E35A8"/>
<circle cx="274.5" cy="210.5" r="1.5" fill="#3E35A8"/>
<circle cx="239.5" cy="210.5" r="1.5" fill="#3E35A8"/>
<circle cx="260.5" cy="210.5" r="1.5" fill="#3E35A8"/>
<circle cx="281.5" cy="210.5" r="1.5" fill="#3E35A8"/>
<circle cx="225.5" cy="246.5" r="1.5" fill="#3E35A8"/>
<circle cx="246.5" cy="246.5" r="1.5" fill="#3E35A8"/>
<circle cx="267.5" cy="246.5" r="1.5" fill="#3E35A8"/>
<circle cx="232.5" cy="246.5" r="1.5" fill="#3E35A8"/>
<circle cx="253.5" cy="246.5" r="1.5" fill="#3E35A8"/>
<circle cx="274.5" cy="246.5" r="1.5" fill="#3E35A8"/>
<circle cx="239.5" cy="246.5" r="1.5" fill="#3E35A8"/>
<circle cx="260.5" cy="246.5" r="1.5" fill="#3E35A8"/>
<circle cx="281.5" cy="246.5" r="1.5" fill="#3E35A8"/>
<circle cx="225.5" cy="239.5" r="1.5" fill="#3E35A8"/>
<circle cx="246.5" cy="239.5" r="1.5" fill="#3E35A8"/>
<circle cx="267.5" cy="239.5" r="1.5" fill="#3E35A8"/>
<circle cx="232.5" cy="239.5" r="1.5" fill="#3E35A8"/>
<circle cx="253.5" cy="239.5" r="1.5" fill="#3E35A8"/>
<circle cx="274.5" cy="239.5" r="1.5" fill="#3E35A8"/>
<circle cx="239.5" cy="239.5" r="1.5" fill="#3E35A8"/>
<circle cx="260.5" cy="239.5" r="1.5" fill="#3E35A8"/>
<circle cx="281.5" cy="239.5" r="1.5" fill="#3E35A8"/>
<circle cx="225.5" cy="232.5" r="1.5" fill="#3E35A8"/>
<circle cx="246.5" cy="232.5" r="1.5" fill="#3E35A8"/>
<circle cx="267.5" cy="232.5" r="1.5" fill="#3E35A8"/>
<circle cx="232.5" cy="232.5" r="1.5" fill="#3E35A8"/>
<circle cx="253.5" cy="232.5" r="1.5" fill="#3E35A8"/>
<circle cx="274.5" cy="232.5" r="1.5" fill="#3E35A8"/>
<circle cx="239.5" cy="232.5" r="1.5" fill="#3E35A8"/>
<circle cx="260.5" cy="232.5" r="1.5" fill="#3E35A8"/>
<circle cx="281.5" cy="232.5" r="1.5" fill="#3E35A8"/>
</svg>
